<?xml version="1.0" encoding="utf-8"?>
<!-- Generator: Adobe Illustrator 16.0.0, SVG Export Plug-In . SVG Version: 6.00 Build 0)  -->
<!DOCTYPE svg PUBLIC "-//W3C//DTD SVG 1.1//EN" "http://www.w3.org/Graphics/SVG/1.1/DTD/svg11.dtd">
<svg version="1.1" id="bat" xmlns="http://www.w3.org/2000/svg" xmlns:xlink="http://www.w3.org/1999/xlink" x="0px" y="0px"
	 width="64px" height="64px" viewBox="0 0 64 64" enable-background="new 0 0 64 64" xml:space="preserve">
<path display="none" fill="none" stroke="#231F20" stroke-width="2" stroke-linejoin="round" stroke-miterlimit="10" d="M36,36.153
	C36,41.592,32,47,32,47s-4-5.408-4-10.847c0-5.438,1.791-9.848,4-9.848S36,30.716,36,36.153z"/>
<path display="none" fill="none" stroke="#231F20" stroke-width="2" stroke-linecap="round" stroke-linejoin="round" stroke-miterlimit="10" d="
	M36.993,33c0.004,1.174-0.096,2.441-0.311,3.754c-0.14,0.852-0.379,1.688-0.683,2.488"/>
<path display="none" fill="none" stroke="#231F20" stroke-width="2" stroke-linecap="round" stroke-linejoin="round" stroke-miterlimit="10" d="
	M27.007,33c-0.004,1.174,0.096,2.441,0.311,3.754c0.14,0.852,0.379,1.688,0.683,2.488"/>
<ellipse display="none" fill="none" stroke="#231F20" stroke-width="2" stroke-linejoin="round" stroke-miterlimit="10" cx="53.5" cy="45" rx="7.5" ry="5"/>
<ellipse display="none" fill="none" stroke="#231F20" stroke-width="2" stroke-linejoin="round" stroke-miterlimit="10" cx="39" cy="45.5" rx="7" ry="4.5"/>
<path fill="#2D2C2C" d="M32,23c0.508,0,1.986,0.113,2.422,0.308l-0.011-0.004c0.111-0.217,0.276-0.403,0.438-0.601
	c0.922-1.12,2.88-3.118,4.442-2.577c-1.313,2.646-1.061,6.411-1.061,6.411C42.131,23.848,45.533,22,50,22c8.284,0,11,7.925,11,14
	c0,3.96-0.538,6.958-1.496,9.224C58.429,43.341,55.703,42,52.5,42C49,42,46,43,45,46c-1-2-3.134-3-7-3c-1.351,0-2.625,0.125-4,1
	c-0.925,1.797-2,3-2,3s-1.075-1.203-2-3c-1.375-0.875-2.649-1-4-1c-3.866,0-6,1-7,3c-1-3-4-4-7.5-4
	c-3.203,0-5.929,1.341-7.004,3.224C3.538,42.958,3,39.96,3,36c0-6.075,2.716-14,11-14c4.467,0,7.869,1.848,11.769,4.537
	c0,0,0.252-3.765-1.061-6.411c1.563-0.541,3.521,1.457,4.442,2.577c0.162,0.197,0.327,0.384,0.438,0.601l-0.011,0.004
	C30.014,23.113,31.492,23,32,23z"/>
<path fill="#202020" d="M50,22c-0.738,0-1.44,0.067-2.128,0.164C54.689,23.274,57,30.411,57,36c0,2.646-0.245,4.854-0.69,6.711
	c1.445,0.573,2.588,1.451,3.194,2.513C60.462,42.958,61,39.96,61,36C61,29.925,58.284,22,50,22z"/>
<path fill="#202020" d="M41.417,25.792c-0.569-0.223-0.898-0.314-1.474-0.313c5.599,3.021,4.367,10.791,3.974,12.896
	c-0.403,2.155-1.141,3.519-1.716,4.992c1.122,0.633,1.961,1.482,2.34,2.421c1.041-1.751,1.774-4.158,2.265-7.401
	C47.292,35.167,46.751,27.875,41.417,25.792z"/>
<path fill="#383737" d="M14,22c0.738,0,1.44,0.067,2.128,0.164C9.311,23.274,7,30.411,7,36c0,2.646,0.245,4.854,0.69,6.711
	c-1.445,0.573-2.588,1.451-3.194,2.513C3.538,42.958,3,39.96,3,36C3,29.925,5.716,22,14,22z"/>
<path fill="#383737" d="M22.583,25.792c0.569-0.223,0.898-0.314,1.474-0.313c-5.599,3.021-4.367,10.791-3.974,12.896
	c0.403,2.155,1.141,3.519,1.716,4.992c-1.122,0.633-1.961,1.482-2.34,2.421c-1.041-1.751-1.774-4.158-2.265-7.401
	C16.708,35.167,17.249,27.875,22.583,25.792z"/>
<path fill="#383737" d="M35,37c0,2.761-2.25,5-3,5s-3-2.239-3-5s1.345-5,3-5S35,34.239,35,37z"/>
<path fill="#D24D57" d="M33,27.576c0,1.044-0.957,1.89-2,1.89s-1.889-0.846-1.889-1.89c0-1.043,0.846-1.889,1.889-1.889
	S33,26.533,33,27.576z"/>
<path fill="#D24D57" d="M37,27.576c0,1.044-0.846,1.89-1.889,1.89S33,28.62,33,27.576c0-1.043,1.068-1.889,2.111-1.889
	S37,26.533,37,27.576z"/>
<path fill="#272223" d="M50,21c-3.997,0-7.197,1.373-10.751,3.655c0.077-1.213,0.308-2.813,0.938-4.085
	c0.128-0.258,0.139-0.558,0.03-0.823c-0.109-0.266-0.327-0.472-0.599-0.566c-0.28-0.097-0.577-0.146-0.882-0.146
	c-1.883,0-3.728,1.899-4.721,3.106c-0.009,0.011-0.018,0.021-0.027,0.032C33.174,22.037,32.18,22,32,22
	c-0.182,0-1.188,0.038-1.992,0.171c-0.027-0.034-0.057-0.068-0.085-0.104c-0.933-1.133-2.777-3.032-4.66-3.032
	c-0.305,0-0.602,0.049-0.882,0.146c-0.271,0.095-0.489,0.301-0.599,0.566c-0.108,0.266-0.098,0.565,0.03,0.823
	c0.631,1.272,0.861,2.872,0.938,4.085C21.197,22.373,17.997,21,14,21C5.71,21,2,28.534,2,36c0,3.962,0.515,7.106,1.575,9.613
	c0.148,0.35,0.482,0.586,0.861,0.608c0.389,0.021,0.739-0.172,0.928-0.502C6.293,44.093,8.759,43,11.5,43
	c3.614,0,5.817,1.116,6.552,3.316c0.128,0.384,0.474,0.652,0.877,0.681c0.417,0.034,0.785-0.188,0.966-0.55
	C20.464,45.308,21.673,44,26,44c1.264,0,2.22,0.12,3.244,0.711c0.938,1.748,1.965,2.905,2.01,2.955C31.444,47.879,31.715,48,32,48
	s0.556-0.121,0.746-0.334c0.045-0.05,1.071-1.207,2.01-2.955C35.78,44.12,36.736,44,38,44c4.327,0,5.536,1.308,6.105,2.447
	c0.181,0.362,0.547,0.583,0.966,0.55c0.403-0.028,0.749-0.297,0.877-0.681C46.683,44.116,48.887,43,52.5,43
	c2.741,0,5.207,1.093,6.136,2.72c0.188,0.33,0.538,0.524,0.928,0.502c0.38-0.022,0.713-0.259,0.861-0.608
	C61.484,43.106,62,39.962,62,36C62,28.534,58.289,21,50,21z M59.142,43.238C57.564,41.842,55.147,41,52.5,41
	c-4.299,0-6.517,1.452-7.652,3.084C43.44,42.669,41.214,42,38,42c-1.315,0-2.86,0.09-4.537,1.156
	c-0.149,0.096-0.271,0.229-0.352,0.386c-0.374,0.727-0.776,1.353-1.111,1.826c-0.335-0.474-0.737-1.1-1.111-1.826
	c-0.081-0.157-0.202-0.29-0.352-0.386C28.86,42.09,27.315,42,26,42c-3.214,0-5.44,0.669-6.848,2.084
	C18.017,42.452,15.798,41,11.5,41c-2.647,0-5.065,0.842-6.642,2.238C4.288,41.253,4,38.828,4,36c0-5.997,2.619-13,10-13
	c4.08,0,7.197,1.599,11.201,4.36c0.297,0.205,0.68,0.233,1.002,0.077c0.324-0.156,0.539-0.475,0.563-0.834
	c0.009-0.133,0.17-2.728-0.525-5.227c0.646,0.385,1.406,1.073,2.137,1.961c0.001,0.001,0.065,0.079,0.066,0.08
	c0.107,0.13,0.208,0.251,0.255,0.343l0.011-0.006c0.232,0.449,0.784,0.65,1.267,0.47C30.245,24.123,31.447,24,32,24
	s1.754,0.123,2.08,0.247c0.496,0.18,1.044-0.06,1.254-0.543c0.053-0.082,0.136-0.182,0.222-0.286
	c0.001-0.001,0.065-0.078,0.066-0.079c0.73-0.889,1.49-1.577,2.137-1.962c-0.443,1.593-0.538,3.221-0.547,4.229
	c-0.527-0.563-1.271-0.919-2.101-0.919c-0.786,0-1.521,0.31-2.082,0.793c-0.539-0.485-1.253-0.793-2.029-0.793
	c-1.593,0-2.889,1.296-2.889,2.889c0,1.594,1.296,2.89,2.889,2.89c0.776,0,1.49-0.308,2.03-0.794
	c0.561,0.484,1.295,0.794,2.081,0.794c1.593,0,2.889-1.296,2.889-2.89c0-0.025-0.007-0.049-0.008-0.074
	c0.274,0.067,0.567,0.022,0.807-0.142C42.803,24.599,45.92,23,50,23c7.381,0,10,7.003,10,13C60,38.828,59.712,41.253,59.142,43.238z
	 M36,27.576c0,0.49-0.398,0.89-0.889,0.89c-0.54,0-1.111-0.457-1.111-0.89c0-0.432,0.571-0.889,1.111-0.889
	C35.602,26.688,36,27.086,36,27.576z M32,27.576c0,0.466-0.477,0.89-1,0.89c-0.49,0-0.889-0.399-0.889-0.89S30.51,26.688,31,26.688
	C31.523,26.688,32,27.111,32,27.576z"/>
<path fill="#272223" d="M37.245,40.358c-0.222,0-0.445-0.074-0.632-0.226c-0.428-0.349-0.491-0.979-0.142-1.407
	c0.827-1.013,1.282-2.299,1.282-3.621c0-1.059-0.287-2.09-0.832-2.983c-0.287-0.473-0.138-1.088,0.334-1.375
	c0.476-0.286,1.089-0.136,1.375,0.334c0.734,1.208,1.123,2.599,1.123,4.024c0,1.782-0.615,3.517-1.733,4.887
	C37.823,40.232,37.535,40.358,37.245,40.358z"/>
<path fill="#272223" d="M26.225,40.358c-0.338,0-0.667-0.171-0.855-0.479c-0.734-1.208-1.123-2.599-1.123-4.024
	c0-1.782,0.615-3.517,1.733-4.887c0.348-0.426,0.976-0.491,1.407-0.142c0.428,0.349,0.491,0.979,0.142,1.407
	c-0.827,1.013-1.282,2.299-1.282,3.621c0,1.059,0.287,2.09,0.832,2.983c0.287,0.473,0.138,1.088-0.334,1.375
	C26.581,40.312,26.401,40.358,26.225,40.358z"/>
</svg>
